<svg width="22" height="22" xmlns="http://www.w3.org/2000/svg"><g fill="none" fill-rule="evenodd"><circle fill="#F2F6FA" cx="11" cy="11" r="11"/><path d="M12.1 7.7v8.8H9.9V7.7H6.6V6.05h8.8V7.7h-3.3z" fill="#64AC90"/><path d="M10.175 9.35v.368c-1.377.037-2.556.144-3.445.304-.8.144-1.23.319-1.23.418 0 .118.561.32 1.558.472 1.106.168 2.61.265 4.217.265 1.607 0 3.111-.097 4.217-.265.997-.152 1.558-.354 1.558-.472 0-.28-2.032-.647-4.675-.724V9.35c3.021.088 5.225.48 5.225 1.09 0 .682-2.787 1.106-6.325 1.106-3.538 0-6.325-.424-6.325-1.106 0-.615 2.163-1.008 5.225-1.09z" fill="#92CDB6" fill-rule="nonzero"/></g></svg>