<svg width="22" height="22" xmlns="http://www.w3.org/2000/svg"><g fill="none" fill-rule="evenodd"><circle fill="#F2F6FA" cx="11" cy="11" r="11"/><path d="M13.594 11.335c.751-.17 1.335-.674 1.512-1.724.248-1.436-.744-2.205-2.19-2.733l.52-1.94-1.151-.308-.506 1.886c-.3-.08-.608-.155-.916-.23l.51-1.901-1.153-.309-.52 1.94c-.427-.1-.918-.238-2.31-.619L7.05 6.66c.915.227 1.408.295 1.357.924l-1.424 5.313c-.197.458-.549.29-1.37.054l-.609 1.347c2.1.562 2.31.627 2.31.627l-.446 1.661 1.152.309.44-1.639c.311.092.618.174.91.253l-.437 1.63 1.151.309.446-1.662c1.958.41 3.382.255 4.056-1.57.536-1.465.028-2.32-.992-2.881zm-3.08-3.656c.65.174 2.74.511 2.367 1.905-.357 1.332-2.35.633-3 .458l.633-2.363zM8.865 13.83l.698-2.602c.777.208 3.22.623 2.81 2.148-.393 1.47-2.73.663-3.508.454z" fill="#FAAD14" fill-rule="nonzero"/></g></svg>